<svg width="105" height="84" viewBox="0 0 105 84" fill="none" xmlns="http://www.w3.org/2000/svg">
<mask id="mask0_135_82" style="mask-type:alpha" maskUnits="userSpaceOnUse" x="0" y="0" width="105" height="84">
<path d="M105 0H0V84H105V0Z" fill="#C4C4C4"/>
</mask>
<g mask="url(#mask0_135_82)">
<path opacity="0.1" d="M55.9455 58.7215C57.9991 73.1547 60.2913 83.3904 48.1722 81.3911C36.0531 79.3919 2.43359 61.2125 8.78772 42.0391C11.8786 32.7124 19.184 19.0761 31.5893 18.5135C42.9839 17.9967 54.8908 51.3091 55.9455 58.7215Z" fill="#276EF1"/>
<path d="M11.883 36.1669C10.6616 35.2999 9.12419 35.8162 8.42395 37.3287C7.72371 38.841 8.14072 40.7445 9.36221 41.6114C10.5837 42.4784 12.1211 41.962 12.8214 40.4497C13.5563 39.096 13.1046 37.0339 11.883 36.1669Z" fill="#276EF1"/>
<path d="M104.29 36.382C104.536 34.6816 104.235 32.9945 103.375 31.5805L87.2583 3.53061C86.4798 2.17429 85.305 1.2065 83.9315 0.901432C82.558 0.596375 81.1955 0.968831 80.0532 2.03358L74.4012 6.997C73.3056 7.96092 72.524 9.41547 72.2776 11.116C72.1951 11.9951 72.1941 12.9321 72.4026 13.8838C69.0835 14.7431 65.5559 14.6505 62.2857 13.535L57.6538 11.855C54.6745 10.812 51.5531 11.9455 49.501 14.5077L45.613 14.0254C43.1452 13.7474 40.5481 14.4492 38.3691 16.1176L36.8892 17.2106C35.759 18.016 34.4898 18.1868 33.2097 17.6801L30.6147 16.508C30.7439 15.5279 30.7916 14.4902 30.5831 13.5385C30.2356 11.9523 29.3756 10.5382 28.1541 9.6712L22.1281 5.39414C19.6851 3.6602 16.4822 4.73584 15.0817 7.76053L1.2171 37.7051C0.516867 39.2174 0.351907 40.9758 0.699418 42.562C1.04692 44.1483 1.90689 45.5624 3.12839 46.4293L9.15443 50.7063C10.0502 51.3421 11.0045 51.6176 12.0176 51.5329C13.7058 51.3916 15.3138 50.2555 16.2007 48.34L16.2941 48.1382L19.7491 50.7244C18.0695 53.4172 18.3564 57.2375 20.3911 59.6195C21.3911 60.7311 22.7061 61.3964 24.0566 61.2834C24.1947 62.8548 24.7517 64.4559 25.7517 65.5674C26.8331 66.7369 28.1133 67.2436 29.4173 67.2315C29.5552 68.8029 30.1122 70.4039 31.1123 71.5155C32.1938 72.6849 33.4738 73.1917 34.7778 73.1795C34.8691 74.8518 35.4729 76.3518 36.4729 77.4635C37.5543 78.633 38.9973 79.2553 40.3479 79.1423C41.6986 79.0293 43.0731 78.3973 44.0643 76.9575L45.6386 74.7259L48.2076 78.2908C48.289 78.3486 48.289 78.3486 48.3237 78.5073C49.6028 79.9508 51.29 80.7467 53.0599 80.6632C54.8296 80.5796 56.3908 79.5445 57.5568 77.9608C58.5481 76.521 59.1322 74.7923 59.2623 72.8754C61.2645 73.2247 63.4891 72.3925 64.9233 70.4633C64.97 70.3625 64.97 70.3625 65.0167 70.2618C66.0892 68.8798 66.6385 66.9923 66.7221 65.1762C68.8056 65.5835 71.0769 64.6504 72.5578 62.6203C73.6305 61.2383 74.1798 59.3509 74.2286 57.3762C74.7291 57.4636 75.2296 57.5509 75.742 57.3788C77.5586 57.1946 79.1198 56.1594 80.2858 54.5757C81.0556 53.3806 81.5462 51.8536 81.6993 50.3547L89.3904 44.0253C90.4946 45.6128 92.0538 46.4515 93.6139 46.3533C94.5803 46.3693 95.5238 45.9673 96.3163 45.1903L101.968 40.2268C103.262 39.5371 104.043 38.0826 104.29 36.382ZM10.8817 46.9759L4.85564 42.6988C4.44847 42.4098 4.2161 41.9769 4.03042 41.4434C3.92616 40.9674 3.99672 40.3477 4.23012 39.8436L18.0947 9.89906C18.5617 8.89083 19.5865 8.54663 20.4008 9.12461L26.4269 13.4017C26.834 13.6907 27.0664 14.1235 27.2522 14.6571C27.3564 15.1331 27.2858 15.7528 27.0524 16.2569L13.1877 46.2014C12.8024 47.2674 11.7774 47.6116 10.8817 46.9759ZM29.5522 50.5827L25.4245 56.2261C24.7947 57.1188 23.4442 57.2318 22.7699 56.3514C21.9675 55.514 21.9109 54.0003 22.6687 53.0646L26.7965 47.4212C27.1113 46.9748 27.5891 46.6441 28.1363 46.6305C28.602 46.5593 29.1373 46.8052 29.4978 47.195C30.2535 48.1333 30.31 49.647 29.5522 50.5827ZM35.8454 55.4511L30.8198 62.3328C30.1434 63.3263 28.9208 63.3962 28.1652 62.4581C27.3628 61.6206 27.3062 60.107 28.064 59.1713L32.1918 53.5277L33.043 52.3905C33.3578 51.9441 33.8355 51.6134 34.3827 51.6C34.93 51.5864 35.3838 51.7747 35.7443 52.1645C36.1048 52.5543 36.3719 53.1457 36.3828 53.8232C36.3588 54.342 36.1602 55.0048 35.8454 55.4511ZM40.3081 62.6374L36.1804 68.2809C35.504 69.2744 34.2815 69.3443 33.5258 68.406C32.7233 67.5687 32.6669 66.0549 33.4246 65.1194L37.5523 59.4758C37.8672 59.0294 38.3449 58.6987 38.8921 58.6853C39.3579 58.614 39.8932 58.86 40.2536 59.2498C40.6141 59.6396 40.8813 60.231 40.8921 60.9086C40.8216 61.5283 40.623 62.1911 40.3081 62.6374ZM44.8523 69.8813L41.5757 74.3876C40.946 75.2802 39.5954 75.3932 38.9211 74.5127C38.5606 74.1229 38.2935 73.5315 38.2826 72.854C38.2716 72.1764 38.4237 71.6144 38.7386 71.1681L42.0151 66.6619C42.3299 66.2156 42.8076 65.8849 43.3548 65.8714C43.9021 65.858 44.3559 66.0461 44.7164 66.4359C45.472 67.3742 45.5286 68.8879 44.8523 69.8813ZM77.7037 52.2073C77.2489 52.9561 76.4683 53.4737 75.63 53.4146C75.63 53.4146 75.6301 53.4146 75.502 53.4576C74.6171 53.4994 73.7094 53.123 72.9884 52.3434L72.2675 51.5637L67.6279 46.3953C66.9069 45.6157 65.8124 45.6427 65.1827 46.5353C64.5531 47.428 64.5748 48.7829 65.2958 49.5626L69.9354 54.731C70.4935 55.395 70.8301 56.3037 70.8291 57.2407C70.9095 58.2355 70.5708 59.2007 69.9878 59.9924C68.8684 61.4753 66.8424 61.6448 65.6448 60.259L61.1681 55.2062C60.4471 54.4266 59.3527 54.4534 58.723 55.3461C58.0933 56.2387 58.1151 57.5938 58.8361 58.3733L62.3128 62.3146C63.5104 63.7004 63.6125 66.0502 62.5746 67.5908L62.528 67.6917C61.4087 69.1744 59.3827 69.344 58.185 67.9581L54.9874 64.349C54.2664 63.5693 53.172 63.5962 52.5423 64.4888C51.9126 65.3816 51.9344 66.7366 52.6554 67.5162L54.9344 70.0715C55.4926 70.7355 55.8291 71.6442 55.8281 72.5812C55.9085 73.576 55.5698 74.5411 54.9868 75.3329C53.8674 76.8158 51.9229 77.0431 50.7252 75.6573L47.8772 71.7604C49.2191 69.0959 48.9204 65.5351 46.9203 63.3117C46.1179 62.4743 45.1407 61.7807 44.0929 61.7069C44.1516 61.3466 44.1635 61.0871 44.094 60.7699C44.0494 58.9968 43.4109 57.3379 42.3295 56.1686C41.5737 55.2303 40.5031 54.7384 39.5021 54.5637C39.5607 54.2035 39.5727 53.944 39.5032 53.6267C39.4586 51.8537 38.8201 50.1949 37.7387 49.0254C36.6572 47.8559 35.3423 47.1907 33.8636 47.3468C33.6073 47.4327 33.3977 47.418 33.0601 47.4462C32.7822 46.1773 32.3293 45.0522 31.4455 44.1569C29.2478 41.6594 25.8712 41.942 23.9007 44.5621L22.1278 47.4564L18.1028 44.4657L29.2132 20.4696L32.1806 21.772C34.4032 22.8138 36.732 22.4573 38.7362 20.9327L40.2161 19.8398C41.7426 18.6459 43.5709 18.2022 45.3287 18.3782L47.3776 18.6267C46.3853 21.0035 45.6721 23.7123 45.2965 26.3928C44.8385 29.9524 46.5694 33.4582 49.4672 34.4433L49.5487 34.5011C51.958 35.1394 54.416 33.8031 55.6298 31.1817L56.9835 28.2579L59.0432 29.1839C64.1517 31.4702 68.7696 35.2835 72.4081 40.2772L77.3137 46.9741C77.3952 47.0319 77.3952 47.0319 77.43 47.1906C78.0695 47.9123 78.4061 48.8211 78.4864 49.8157C78.4507 50.5941 78.1586 51.4585 77.7037 52.2073ZM81.0519 46.1443C80.6686 45.3365 80.2853 44.5287 79.7272 43.8646L74.903 37.2255C70.8692 31.6835 65.8095 27.4224 60.1191 24.991L56.9888 23.5731C55.9996 23.1389 54.8813 23.6847 54.3678 24.7938L52.4539 28.9276C51.9871 29.9358 51.0783 30.4964 50.2053 30.2788C49.0882 29.8877 48.3096 28.5312 48.544 27.0903C48.9316 24.1503 49.7728 21.3985 50.9399 18.8778L51.1267 18.4746C52.1536 16.2564 54.4369 15.064 56.5433 15.8892L61.1751 17.5692C65.4346 19.1188 69.847 19.1697 74.0748 17.7498L87.3447 40.9658L81.0519 46.1443ZM100.098 37.0235L94.4454 41.9871C93.6996 42.6632 92.6171 42.4308 92.0709 41.5072L76.0008 13.3566C75.7683 12.9238 75.6293 12.2893 75.7347 11.8282C75.8052 11.2085 76.0734 10.863 76.4697 10.4745L82.1218 5.51106C82.3432 5.26639 82.7276 5.1373 83.0652 5.10906C83.1933 5.06603 83.2748 5.12382 83.4844 5.1386C83.9849 5.22595 84.2639 5.55796 84.5777 6.0486L100.648 34.1993C100.88 34.632 101.019 35.2666 100.914 35.7276C100.809 36.1887 100.494 36.635 100.098 37.0235Z" fill="#276EF1"/>
<path d="M96.2015 32.1157C95.3415 30.7016 93.7585 30.3819 92.6631 31.3458C91.5209 32.4105 91.2626 34.3704 92.0412 35.7267C92.9011 37.1409 94.4841 37.4607 95.5796 36.4968C96.7565 35.5908 97.0615 33.53 96.2015 32.1157Z" fill="#276EF1"/>
</g>
</svg>
