<svg width="59" height="59" viewBox="0 0 59 59" fill="none" xmlns="http://www.w3.org/2000/svg">
<circle cx="26.511" cy="38.1302" r="20.3304" fill="#E9F0FE"/>
<path d="M29.8305 0.458008C13.8217 0.458008 0.829102 13.4506 0.829102 29.4594C0.829102 45.4681 13.8217 58.4607 29.8305 58.4607C45.8392 58.4607 58.8318 45.4681 58.8318 29.4594C58.8318 13.4506 45.8392 0.458008 29.8305 0.458008ZM29.8305 53.8205C16.3738 53.8205 5.46932 42.916 5.46932 29.4594C5.46932 16.0027 16.3738 5.09823 29.8305 5.09823C43.2871 5.09823 54.1916 16.0027 54.1916 29.4594C54.1916 42.916 43.2871 53.8205 29.8305 53.8205Z" fill="#276EF1"/>
<path d="M44.2462 38.0672L31.578 30.733V13.6643C31.578 12.3308 30.5112 11.1306 29.0444 11.1306C27.5775 11.1306 26.5107 12.1974 26.5107 13.6643V32.1998C26.7774 33.4 27.1775 33.9334 27.9776 34.4668L41.5792 42.3344C42.7794 43.0012 44.2462 42.6011 44.913 41.401C45.8464 40.3342 45.4464 38.734 44.2462 38.0672Z" fill="#276EF1"/>
</svg>
