<svg width="25" height="25" viewBox="0 0 25 25" fill="none" xmlns="http://www.w3.org/2000/svg">
<mask id="mask0" style="mask-type:alpha" maskUnits="userSpaceOnUse" x="0" y="0" width="25" height="25">
<rect x="0.0801392" y="0.563232" width="24" height="24" fill="white"/>
</mask>
<g mask="url(#mask0)">
<path fill-rule="evenodd" clip-rule="evenodd" d="M9.08014 21.5632V9.56323H13.0801V11.5632C13.9328 10.4785 15.2258 9.83181 16.6051 9.80023C19.0857 9.814 21.0873 11.8326 21.0802 14.3132V21.5632H17.0801V14.8132C16.9202 13.6959 15.9619 12.8668 14.8331 12.8692C14.3394 12.8848 13.8734 13.101 13.5426 13.4679C13.2118 13.8347 13.0448 14.3205 13.0801 14.8132V21.5632H9.08014ZM3.08014 21.5632V9.56323H7.08014V21.5632H3.08014ZM3.08014 5.56323C3.08014 4.45866 3.97557 3.56323 5.08014 3.56323C6.18471 3.56323 7.08014 4.45866 7.08014 5.56323C7.08014 6.09367 6.86943 6.60237 6.49435 6.97745C6.11928 7.35252 5.61057 7.56323 5.08014 7.56323C3.97557 7.56323 3.08014 6.6678 3.08014 5.56323Z" fill="#276EF1"/>
</g>
</svg>
