<svg width="136" height="86" viewBox="0 0 136 86" fill="none" xmlns="http://www.w3.org/2000/svg">
<path d="M0 73.9245C0 62.6952 7.58958 53.592 16.9518 53.592H77.4682C86.8304 53.592 94.42 62.6952 94.42 73.9243V84.9995H0V73.9245Z" fill="#E9F0FE"/>
<path d="M26.2179 51.4697C33.9647 51.4697 40.2447 43.9374 40.2447 34.6457C40.2447 25.3541 33.9647 17.8218 26.2179 17.8218C18.4712 17.8218 12.1912 25.3541 12.1912 34.6457C12.1912 43.9374 18.4712 51.4697 26.2179 51.4697Z" fill="#E9F0FE"/>
<path d="M65.3153 48.5051C74.2241 48.5051 81.4462 39.8428 81.4462 29.1573C81.4462 18.4719 74.2241 9.80957 65.3153 9.80957C56.4064 9.80957 49.1843 18.4719 49.1843 29.1573C49.1843 39.8428 56.4064 48.5051 65.3153 48.5051Z" fill="#E9F0FE"/>
<path d="M69.7193 50.1031C81.0049 50.1031 90.1888 39.0877 90.1888 25.5515C90.1888 12.0153 81.0049 1 69.7193 1C58.4336 1 49.2498 12.0153 49.2498 25.5533C49.2498 39.0913 58.4322 50.1031 69.7193 50.1031ZM69.7193 8.66513C77.4822 8.66513 83.7981 16.2406 83.7981 25.5515C83.7981 34.8624 77.4822 42.4379 69.7193 42.4379C61.9564 42.4379 55.6406 34.8624 55.6406 25.5515C55.639 16.2406 61.9549 8.66513 69.7193 8.66513Z" fill="#276EF1"/>
<path d="M69.7193 50.1031C81.0049 50.1031 90.1888 39.0877 90.1888 25.5515C90.1888 12.0153 81.0049 1 69.7193 1C58.4336 1 49.2498 12.0153 49.2498 25.5533C49.2498 39.0913 58.4322 50.1031 69.7193 50.1031ZM69.7193 8.66513C77.4822 8.66513 83.7981 16.2406 83.7981 25.5515C83.7981 34.8624 77.4822 42.4379 69.7193 42.4379C61.9564 42.4379 55.6406 34.8624 55.6406 25.5515C55.639 16.2406 61.9549 8.66513 69.7193 8.66513Z" stroke="white"/>
<path d="M79.8545 52.3916H58.6736C45.4435 52.3916 34.6814 65.2998 34.6814 81.1683C34.6814 83.2866 36.11 85.0001 37.876 85.0001C39.6419 85.0001 41.0705 83.2866 41.0705 81.1683C41.0705 69.5288 48.9678 60.0567 58.6721 60.0567H79.8529C89.5572 60.0567 97.4545 69.5288 97.4545 81.1683C97.4545 83.2866 98.8831 85.0001 100.649 85.0001C102.415 85.0001 103.844 83.2866 103.844 81.1683C103.847 65.2998 93.0846 52.3916 79.8545 52.3916Z" fill="#276EF1"/>
<path d="M79.8545 52.3916H58.6736C45.4435 52.3916 34.6814 65.2998 34.6814 81.1683C34.6814 83.2866 36.11 85.0001 37.876 85.0001C39.6419 85.0001 41.0705 83.2866 41.0705 81.1683C41.0705 69.5288 48.9678 60.0567 58.6721 60.0567H79.8529C89.5572 60.0567 97.4545 69.5288 97.4545 81.1683C97.4545 83.2866 98.8831 85.0001 100.649 85.0001C102.415 85.0001 103.844 83.2866 103.844 81.1683C103.847 65.2998 93.0846 52.3916 79.8545 52.3916Z" stroke="white"/>
<path d="M30.7377 49.0925C39.4743 49.0925 46.5825 40.567 46.5825 30.0879C46.5825 19.6127 39.4743 11.0872 30.7377 11.0872C22.0041 11.0872 14.896 19.6127 14.896 30.0879C14.896 40.567 22.0041 49.0925 30.7377 49.0925ZM30.7377 18.7524C35.9517 18.7524 40.1918 23.838 40.1918 30.0879C40.1918 36.3417 35.9517 41.4273 30.7377 41.4273C25.5268 41.4273 21.2867 36.3417 21.2867 30.0879C21.2867 23.838 25.5268 18.7524 30.7377 18.7524Z" fill="#276EF1"/>
<path d="M30.7377 49.0925C39.4743 49.0925 46.5825 40.567 46.5825 30.0879C46.5825 19.6127 39.4743 11.0872 30.7377 11.0872C22.0041 11.0872 14.896 19.6127 14.896 30.0879C14.896 40.567 22.0041 49.0925 30.7377 49.0925ZM30.7377 18.7524C35.9517 18.7524 40.1918 23.838 40.1918 30.0879C40.1918 36.3417 35.9517 41.4273 30.7377 41.4273C25.5268 41.4273 21.2867 36.3417 21.2867 30.0879C21.2867 23.838 25.5268 18.7524 30.7377 18.7524Z" stroke="white"/>
<path d="M41.3463 55.8185C41.3463 53.7003 39.9177 51.9868 38.1516 51.9868H22.6473C12.4912 51.9868 4.22461 61.9 4.22461 74.0834C4.22461 76.2015 5.65325 77.915 7.4192 77.915C9.18516 77.915 10.6138 76.2015 10.6138 74.0834C10.6138 66.1272 16.0124 59.6519 22.6458 59.6519H38.1516C39.9177 59.6519 41.3463 57.9366 41.3463 55.8185Z" fill="#276EF1"/>
<path d="M41.3463 55.8185C41.3463 53.7003 39.9177 51.9868 38.1516 51.9868H22.6473C12.4912 51.9868 4.22461 61.9 4.22461 74.0834C4.22461 76.2015 5.65325 77.915 7.4192 77.915C9.18516 77.915 10.6138 76.2015 10.6138 74.0834C10.6138 66.1272 16.0124 59.6519 22.6458 59.6519H38.1516C39.9177 59.6519 41.3463 57.9366 41.3463 55.8185Z" stroke="white"/>
<path d="M108.491 49.0925C117.225 49.0925 124.333 40.567 124.333 30.0879C124.333 19.6127 117.225 11.0872 108.491 11.0872C99.7544 11.0872 92.6462 19.6127 92.6462 30.0879C92.6448 40.567 99.7528 49.0925 108.491 49.0925ZM108.491 18.7524C113.702 18.7524 117.942 23.838 117.942 30.0879C117.942 36.3417 113.702 41.4273 108.491 41.4273C103.277 41.4273 99.0371 36.3417 99.0371 30.0879C99.0355 23.838 103.276 18.7524 108.491 18.7524Z" fill="#276EF1"/>
<path d="M108.491 49.0925C117.225 49.0925 124.333 40.567 124.333 30.0879C124.333 19.6127 117.225 11.0872 108.491 11.0872C99.7544 11.0872 92.6462 19.6127 92.6462 30.0879C92.6448 40.567 99.7528 49.0925 108.491 49.0925ZM108.491 18.7524C113.702 18.7524 117.942 23.838 117.942 30.0879C117.942 36.3417 113.702 41.4273 108.491 41.4273C103.277 41.4273 99.0371 36.3417 99.0371 30.0879C99.0355 23.838 103.276 18.7524 108.491 18.7524Z" stroke="white"/>
<path d="M69.7549 38.0906C69.9396 38.0906 70.1227 38.0796 70.3105 38.0613C72.3955 37.8434 74.2606 36.4192 75.3061 34.2479C75.7487 33.3307 75.4878 32.1591 74.7231 31.6319C73.9614 31.1046 72.9816 31.414 72.5419 32.3312C72.0184 33.4205 71.0812 34.1344 70.0357 34.2443C68.8559 34.3339 67.702 33.6896 67.0624 32.4703C66.5847 31.5714 65.5956 31.317 64.857 31.8754C64.1106 32.4446 63.8892 33.6273 64.3608 34.5207C65.5453 36.7614 67.5738 38.0906 69.7549 38.0906Z" fill="#276EF1"/>
<path d="M69.7549 38.0906C69.9396 38.0906 70.1227 38.0796 70.3105 38.0613C72.3955 37.8434 74.2606 36.4192 75.3061 34.2479C75.7487 33.3307 75.4878 32.1591 74.7231 31.6319C73.9614 31.1046 72.9816 31.414 72.5419 32.3312C72.0184 33.4205 71.0812 34.1344 70.0357 34.2443C68.8559 34.3339 67.702 33.6896 67.0624 32.4703C66.5847 31.5714 65.5956 31.317 64.857 31.8754C64.1106 32.4446 63.8892 33.6273 64.3608 34.5207C65.5453 36.7614 67.5738 38.0906 69.7549 38.0906Z" stroke="white"/>
<path d="M108.174 38.0906C108.359 38.0906 108.542 38.0796 108.73 38.0613C110.811 37.8434 112.677 36.4228 113.722 34.2479C114.165 33.3307 113.904 32.1591 113.139 31.6319C112.374 31.1046 111.395 31.414 110.958 32.3312C110.433 33.4205 109.497 34.1344 108.455 34.2443C107.263 34.3449 106.118 33.6896 105.478 32.4703C105.001 31.5714 104.009 31.317 103.273 31.8754C102.527 32.4446 102.305 33.6273 102.777 34.5207C103.961 36.7614 105.993 38.0906 108.174 38.0906Z" fill="#276EF1"/>
<path d="M108.174 38.0906C108.359 38.0906 108.542 38.0796 108.73 38.0613C110.811 37.8434 112.677 36.4228 113.722 34.2479C114.165 33.3307 113.904 32.1591 113.139 31.6319C112.374 31.1046 111.395 31.414 110.958 32.3312C110.433 33.4205 109.497 34.1344 108.455 34.2443C107.263 34.3449 106.118 33.6896 105.478 32.4703C105.001 31.5714 104.009 31.317 103.273 31.8754C102.527 32.4446 102.305 33.6273 102.777 34.5207C103.961 36.7614 105.993 38.0906 108.174 38.0906Z" stroke="white"/>
<path d="M30.67 38.0895C30.8548 38.0895 31.041 38.0785 31.2257 38.0603C33.3137 37.8424 35.1788 36.4181 36.2213 34.2433C36.6609 33.3261 36.3968 32.1545 35.6321 31.6272C34.8705 31.1 33.8906 31.4094 33.4511 32.3338C32.9305 33.4194 31.9964 34.1334 30.9509 34.2433C29.7863 34.333 28.6171 33.6886 27.9715 32.4657C27.4999 31.5705 26.5108 31.3086 25.766 31.878C25.0227 32.4473 24.8014 33.6301 25.276 34.5234C26.4605 36.7605 28.492 38.0895 30.67 38.0895Z" fill="#276EF1"/>
<path d="M30.67 38.0895C30.8548 38.0895 31.041 38.0785 31.2257 38.0603C33.3137 37.8424 35.1788 36.4181 36.2213 34.2433C36.6609 33.3261 36.3968 32.1545 35.6321 31.6272C34.8705 31.1 33.8906 31.4094 33.4511 32.3338C32.9305 33.4194 31.9964 34.1334 30.9509 34.2433C29.7863 34.333 28.6171 33.6886 27.9715 32.4657C27.4999 31.5705 26.5108 31.3086 25.766 31.878C25.0227 32.4473 24.8014 33.6301 25.276 34.5234C26.4605 36.7605 28.492 38.0895 30.67 38.0895Z" stroke="white"/>
<path d="M116.578 51.9868H101.074C99.308 51.9868 97.8794 53.7003 97.8794 55.8185C97.8794 57.9366 99.308 59.6501 101.074 59.6501H116.578C123.211 59.6501 128.611 66.1253 128.611 74.0816C128.611 76.1996 130.039 77.9133 131.805 77.9133C133.571 77.9133 135 76.1996 135 74.0816C135.001 61.9 126.736 51.9868 116.578 51.9868Z" fill="#276EF1"/>
<path d="M116.578 51.9868H101.074C99.308 51.9868 97.8794 53.7003 97.8794 55.8185C97.8794 57.9366 99.308 59.6501 101.074 59.6501H116.578C123.211 59.6501 128.611 66.1253 128.611 74.0816C128.611 76.1996 130.039 77.9133 131.805 77.9133C133.571 77.9133 135 76.1996 135 74.0816C135.001 61.9 126.736 51.9868 116.578 51.9868Z" stroke="white"/>
</svg>
