<svg width="24" height="25" viewBox="0 0 24 25" fill="none" xmlns="http://www.w3.org/2000/svg">
<mask id="mask0" style="mask-type:alpha" maskUnits="userSpaceOnUse" x="0" y="0" width="24" height="25">
<rect y="0.188232" width="24" height="24" fill="white"/>
</mask>
<g mask="url(#mask0)">
<path d="M21.882 4.50222C21.0397 5.00202 20.118 5.3541 19.157 5.54322C17.8246 4.13375 15.7135 3.79075 14.0034 4.70588C12.2933 5.62101 11.4075 7.56771 11.841 9.45822C8.39062 9.28499 5.17598 7.65514 2.99702 4.97422C1.85986 6.93564 2.44097 9.443 4.32502 10.7042C3.64373 10.6823 2.97754 10.4979 2.38202 10.1662C2.38202 10.1842 2.38202 10.2022 2.38202 10.2202C2.38241 12.2634 3.82239 14.0233 5.82502 14.4282C5.19308 14.6001 4.53022 14.6255 3.88702 14.5022C4.45022 16.2495 6.06057 17.4465 7.89602 17.4822C6.37585 18.6754 4.49849 19.3224 2.56602 19.3192C2.22349 19.3197 1.88123 19.3 1.54102 19.2602C3.50341 20.5213 5.78739 21.1906 8.12002 21.1882C11.3653 21.2105 14.484 19.9311 16.7787 17.6362C19.0734 15.3414 20.3526 12.2225 20.33 8.97722C20.33 8.79122 20.3257 8.60622 20.317 8.42222C21.1575 7.81482 21.8828 7.06237 22.459 6.20022C21.676 6.54728 20.8455 6.77514 19.995 6.87622C20.8914 6.34031 21.5622 5.49646 21.882 4.50222Z" fill="#276EF1"/>
</g>
</svg>
